<svg width="260" height="299" viewBox="0 0 260 299" fill="none" xmlns="http://www.w3.org/2000/svg">
<path d="M257.136 89.0181C258.393 94.1242 259.252 99.3585 259.681 104.695L258.186 104.815C258.394 107.402 258.5 110.012 258.5 112.645C258.5 115.048 258.412 117.55 258.237 120.139L259.734 120.24C259.411 125.03 258.798 130.102 257.911 135.386L256.432 135.138C255.629 139.923 254.598 144.888 253.352 149.982L254.809 150.338C253.633 155.146 252.266 160.064 250.72 165.049L249.288 164.605C247.817 169.348 246.182 174.152 244.392 178.981L245.799 179.503C244.051 184.218 242.157 188.956 240.124 193.681L238.746 193.088C236.757 197.711 234.635 202.322 232.388 206.887L233.734 207.55C231.49 212.11 229.121 216.625 226.636 221.064L225.327 220.331C222.845 224.765 220.246 229.12 217.539 233.364L218.803 234.171C216.043 238.499 213.17 242.713 210.192 246.78L208.982 245.894C205.956 250.027 202.823 254.003 199.593 257.788L200.734 258.762C197.371 262.702 193.901 266.438 190.333 269.931L189.283 268.859C185.602 272.462 181.82 275.799 177.949 278.825L178.873 280.007C174.765 283.219 170.551 286.09 166.246 288.568L165.498 287.268C161.058 289.823 156.529 291.947 151.924 293.586L152.427 294.999C147.577 296.725 142.635 297.926 137.617 298.536L137.435 297.047C134.974 297.346 132.495 297.5 130 297.5C127.505 297.5 125.026 297.346 122.565 297.047L122.383 298.536C117.365 297.926 112.423 296.725 107.573 294.999L108.076 293.586C103.471 291.947 98.9416 289.823 94.502 287.268L93.7538 288.568C89.4486 286.09 85.2355 283.219 81.1269 280.007L82.0508 278.825C78.1799 275.799 74.3981 272.462 70.7166 268.859L69.6674 269.931C66.0995 266.438 62.6293 262.702 59.2664 258.762L60.4074 257.788C57.1768 254.003 54.0441 250.027 51.0182 245.894L49.808 246.78C46.8303 242.713 43.9571 238.499 41.1967 234.171L42.4613 233.364C39.7542 229.12 37.1555 224.765 34.6729 220.331L33.3641 221.064C30.8789 216.625 28.5102 212.11 26.2658 207.55L27.6117 206.887C25.3646 202.322 23.2427 197.711 21.2538 193.088L19.8759 193.681C17.8432 188.956 15.9489 184.218 14.2013 179.503L15.6078 178.982C13.818 174.152 12.1832 169.348 10.7123 164.605L9.27959 165.049C7.73374 160.064 6.36746 155.146 5.1911 150.338L6.64813 149.982C5.40196 144.888 4.3713 139.923 3.56797 135.138L2.08867 135.386C1.20158 130.102 0.588515 125.03 0.265927 120.24L1.76254 120.139C1.58821 117.55 1.5 115.048 1.5 112.645C1.5 110.012 1.6058 107.402 1.81388 104.815L0.318716 104.695C0.748115 99.3584 1.60652 94.1242 2.86425 89.018L4.32071 89.3768C5.57366 84.2901 7.22928 79.3313 9.25781 74.5266L7.87593 73.9432C9.93385 69.0688 12.3694 64.3521 15.1518 59.8196L16.4301 60.6044C19.1494 56.1747 22.2058 51.9216 25.5704 47.871L24.4166 46.9126C27.7768 42.8673 31.4389 39.023 35.3744 35.4043L36.3897 36.5085C40.209 32.9968 44.2902 29.6992 48.6068 26.6392L47.7393 25.4154C52.0198 22.381 56.5278 19.5784 61.2377 17.0299L61.9516 18.3492C66.5128 15.8811 71.2666 13.6534 76.1891 11.6869L75.6326 10.2939C80.5019 8.34872 85.5336 6.65673 90.7053 5.23743L91.1023 6.68395C96.1001 5.31238 101.231 4.19796 106.474 3.35882L106.236 1.87767C111.406 1.0503 116.682 0.487908 122.046 0.207377L122.125 1.70533C124.729 1.56911 127.355 1.5 130 1.5C132.645 1.5 135.271 1.56911 137.875 1.70533L137.954 0.207377C143.318 0.487909 148.594 1.0503 153.764 1.87767L153.526 3.35882C158.769 4.19796 163.9 5.31238 168.898 6.68395L169.295 5.23744C174.466 6.65673 179.498 8.34872 184.367 10.2939L183.811 11.6869C188.733 13.6534 193.487 15.8811 198.048 18.3492L198.762 17.0299C203.472 19.5784 207.98 22.381 212.261 25.4154L211.393 26.6392C215.71 29.6992 219.791 32.9968 223.61 36.5085L224.626 35.4043C228.561 39.023 232.223 42.8673 235.583 46.9126L234.43 47.871C237.794 51.9216 240.851 56.1747 243.57 60.6044L244.848 59.8196C247.631 64.3521 250.066 69.0688 252.124 73.9432L250.742 74.5266C252.771 79.3313 254.426 84.2901 255.679 89.3768L257.136 89.0181Z" stroke="#06C92E" stroke-width="3" stroke-dasharray="15 15"/>
</svg>
